<?xml version="1.0" encoding="utf-8"?>
<!-- Generator: Adobe Illustrator 25.0.1, SVG Export Plug-In . SVG Version: 6.00 Build 0)  -->
<svg version="1.1" id="Layer_1" xmlns="http://www.w3.org/2000/svg" xmlns:xlink="http://www.w3.org/1999/xlink" x="0px" y="0px"
	 viewBox="0 0 640 540" style="enable-background:new 0 0 640 540;" xml:space="preserve">
<style type="text/css">
	.st0{fill:#E2DBD2;}
	.st1{font-family:'Gabriola';}
	.st2{font-size:24px;}
	.st3{letter-spacing:7;}
	.st4{fill:#F2F2F2;}
</style>
<text transform="matrix(1 0 0 1 139.1553 371.2471)" class="st0 st1 st2 st3">we create, others imitate</text>
<path class="st0" d="M309.36,121.7c-18.16-7.8-37.59-11.7-58.3-11.7c-20.71,0-40.15,3.9-58.3,11.7
	c-18.16,7.81-34.04,18.51-47.66,32.13c-13.62,13.62-24.33,29.51-32.13,47.66c-5.84,13.59-9.49,27.9-10.96,42.91h70.63
	c0.85-5.52,2.16-10.89,3.95-16.1c3.4-9.93,8.94-18.72,16.6-26.38c7.94-7.66,16.88-13.54,26.81-17.66
	c9.93-4.11,20.28-6.17,31.07-6.17c10.78,0,21.13,2.06,31.06,6.17c9.93,4.12,18.86,10,26.81,17.66c7.66,7.66,13.19,16.46,16.6,26.38
	c1.79,5.21,3.1,10.58,3.95,16.1h19.58v-97.98C337.31,136.27,324.08,128.03,309.36,121.7z"/>
<path class="st4" d="M532.31,167.74c-4.54-11.48-10.78-21.49-18.72-30.04c-7.95-8.54-17.23-15.29-27.87-20.26
	c-10.64-4.96-21.92-7.45-33.83-7.45H367.2v134.41h159.76c2.1-3.91,4.16-8.12,6.19-12.63c3.97-8.85,5.96-17.93,5.96-27.24
	C539.12,191.49,536.85,179.23,532.31,167.74z M464.01,218.5c-3.27,4.04-7.31,6.05-12.13,6.05h-60v-40.05h60
	c4.82,0,8.86,2.02,12.13,6.05c3.26,4.04,4.89,8.7,4.89,13.97C468.9,209.82,467.27,214.47,464.01,218.5z"/>
<g>
	<g>
		<path class="st0" d="M163.38,290.69c0,4.33-0.82,8.38-2.44,12.18c-1.63,3.79-3.87,7.1-6.71,9.91c-2.84,2.81-6.16,5.04-9.95,6.67
			c-3.79,1.63-7.85,2.44-12.18,2.44c-4.33,0-8.38-0.81-12.18-2.44c-3.79-1.63-7.11-3.85-9.95-6.67c-2.84-2.81-5.08-6.12-6.71-9.91
			c-1.63-3.79-2.44-7.85-2.44-12.18c0-4.32,0.81-8.38,2.44-12.18c1.63-3.79,3.87-7.11,6.71-9.95c2.84-2.84,6.16-5.08,9.95-6.71
			c3.79-1.63,7.85-2.44,12.18-2.44c4.32,0,8.38,0.82,12.18,2.44c3.79,1.63,7.11,3.87,9.95,6.71c2.84,2.84,5.08,6.16,6.71,9.95
			C162.57,282.3,163.38,286.36,163.38,290.69z M144.19,302.69c1.6-1.6,2.75-3.44,3.47-5.51c0.71-2.07,1.07-4.24,1.07-6.49
			c0-2.31-0.36-4.5-1.07-6.58c-0.71-2.07-1.87-3.91-3.47-5.51c-1.66-1.6-3.53-2.83-5.6-3.69c-2.07-0.86-4.24-1.29-6.49-1.29
			c-2.25,0-4.41,0.43-6.49,1.29c-2.07,0.86-3.94,2.09-5.6,3.69c-1.6,1.6-2.75,3.44-3.47,5.51c-0.71,2.07-1.07,4.27-1.07,6.58
			c0,2.25,0.36,4.41,1.07,6.49c0.71,2.07,1.87,3.91,3.47,5.51c1.66,1.6,3.52,2.83,5.6,3.69c2.07,0.86,4.24,1.29,6.49,1.29
			c2.25,0,4.41-0.43,6.49-1.29C140.66,305.52,142.53,304.29,144.19,302.69z"/>
		<path class="st0" d="M188.77,276.02c2.96,0,5.85,0.5,8.66,1.51c2.81,1.01,5.08,2.31,6.8,3.91l-7.47,9.06
			c-0.48-0.36-1.04-0.71-1.69-1.07c-0.65-0.36-1.35-0.7-2.09-1.02c-0.74-0.32-1.48-0.58-2.22-0.76c-0.74-0.18-1.41-0.27-2-0.27
			c-1.48,0-2.49,0.21-3.02,0.62c-0.53,0.42-0.8,0.86-0.8,1.33c0,0.48,0.4,0.93,1.2,1.38c0.8,0.44,1.79,0.9,2.98,1.38l5.42,2.31
			c2.13,0.89,3.87,1.87,5.2,2.93s2.37,2.21,3.11,3.42c0.74,1.21,1.23,2.5,1.47,3.87c0.24,1.36,0.36,2.79,0.36,4.27
			c0,2.31-0.5,4.3-1.51,5.95c-1.01,1.66-2.3,3.01-3.87,4.04c-1.57,1.04-3.35,1.79-5.33,2.27c-1.99,0.47-3.95,0.71-5.91,0.71
			c-3.85,0-7.3-0.64-10.35-1.91c-3.05-1.27-5.44-2.71-7.15-4.31l5.87-9.42c0.41,0.36,1.04,0.73,1.87,1.11
			c0.83,0.39,1.79,0.74,2.89,1.07c1.1,0.33,2.24,0.61,3.42,0.84c1.18,0.24,2.34,0.36,3.47,0.36c0.47,0,0.89-0.09,1.24-0.27
			c0.3-0.12,0.59-0.3,0.89-0.53c0.3-0.24,0.44-0.59,0.44-1.07c0-0.59-0.24-1.05-0.71-1.38c-0.48-0.33-1.39-0.78-2.76-1.38
			l-5.42-2.31c-3.55-1.54-6.16-3.41-7.82-5.6c-1.66-2.19-2.49-4.77-2.49-7.73c0-2.55,0.52-4.68,1.56-6.4
			c1.04-1.72,2.38-3.08,4.04-4.09c1.66-1.01,3.51-1.73,5.55-2.18C184.64,276.25,186.7,276.02,188.77,276.02z"/>
		<path class="st0" d="M239.72,287.49h-10.49v33.68h-13.77v-33.68h-4.27v-10.75l18.04-15.91v15.91h10.49V287.49z"/>
		<path class="st0" d="M292.6,305.44l-34.75,0.09c1.01,1.72,2.32,3.14,3.95,4.27c1.63,1.13,3.51,1.69,5.64,1.69
			c1.9,0,3.73-0.34,5.51-1.02c1.78-0.68,3.08-1.7,3.91-3.07l8.89,7.91c-2.43,2.19-5.23,3.84-8.4,4.93c-3.17,1.1-6.47,1.64-9.91,1.64
			c-3.14,0-6.22-0.48-9.24-1.42c-3.02-0.95-5.7-2.37-8.04-4.27c-2.34-1.9-4.22-4.27-5.64-7.11c-1.42-2.84-2.13-6.19-2.13-10.04
			c0-3.85,0.71-7.21,2.13-10.09c1.42-2.87,3.3-5.27,5.64-7.2c2.34-1.92,5.02-3.36,8.04-4.31c3.02-0.95,6.1-1.42,9.24-1.42
			c4.09,0,7.28,0.7,9.78,1.56c3.02,1.04,5.66,2.55,7.91,4.53c2.25,1.99,4.03,4.41,5.33,7.29c1.3,2.87,2.01,6.12,2.13,9.73V305.44z
			 M259.45,290.07c-0.65,0.65-1.2,1.39-1.64,2.22c-0.44,0.83-0.81,1.69-1.11,2.58h21.6c-0.3-0.89-0.67-1.75-1.11-2.58
			c-0.44-0.83-0.99-1.57-1.64-2.22c-1.19-1.18-2.4-2.09-3.64-2.71c-1.24-0.62-2.73-0.93-4.44-0.93c-1.66,0-3.11,0.31-4.35,0.93
			C261.85,287.98,260.63,288.88,259.45,290.07z"/>
		<path class="st0" d="M347.87,299.04c0,3.85-0.71,7.2-2.13,10.04c-1.42,2.84-3.32,5.21-5.69,7.11c-2.37,1.9-5.05,3.32-8.04,4.27
			c-2.99,0.95-6.09,1.42-9.29,1.42c-3.14,0-6.22-0.48-9.24-1.42c-3.02-0.95-5.7-2.37-8.04-4.27c-2.34-1.9-4.22-4.27-5.64-7.11
			c-1.42-2.84-2.13-6.19-2.13-10.04c0-3.85,0.71-7.21,2.13-10.09c1.42-2.87,3.3-5.27,5.64-7.2c2.34-1.92,5.02-3.36,8.04-4.31
			c3.02-0.95,6.1-1.42,9.24-1.42c3.2,0,6.29,0.48,9.29,1.42c2.99,0.95,5.67,2.39,8.04,4.31c2.37,1.93,4.27,4.33,5.69,7.2
			C347.16,291.83,347.87,295.19,347.87,299.04z M330.8,307.84c1.18-1.18,2.03-2.53,2.53-4.04c0.5-1.51,0.76-3.09,0.76-4.75
			c0-1.72-0.25-3.35-0.76-4.89c-0.5-1.54-1.35-2.9-2.53-4.09c-1.19-1.18-2.52-2.04-4-2.58c-1.48-0.53-2.84-0.8-4.09-0.8
			c-1.19,0-2.52,0.27-4,0.8c-1.48,0.53-2.81,1.39-4,2.58c-1.19,1.19-2.03,2.55-2.53,4.09c-0.5,1.54-0.76,3.17-0.76,4.89
			c0,1.66,0.25,3.23,0.76,4.71c0.5,1.48,1.35,2.81,2.53,4c1.18,1.19,2.52,2.06,4,2.62c1.48,0.56,2.81,0.84,4,0.84
			c1.24,0,2.61-0.27,4.09-0.8C328.29,309.88,329.62,309.03,330.8,307.84z"/>
	</g>
	<g>
		<path class="st0" d="M409.6,287.76c0.89-1.24,1.75-2.71,2.58-4.4c0.83-1.69,1.24-3.42,1.24-5.2c0-2.49-0.47-4.83-1.42-7.02
			c-0.95-2.19-2.25-4.1-3.91-5.73c-1.66-1.63-3.6-2.92-5.82-3.87c-2.22-0.95-4.58-1.42-7.07-1.42h-27.19v61.05h27.19
			c3.85,0,7.09-0.58,9.73-1.73c2.64-1.16,4.78-2.67,6.44-4.53c1.66-1.87,2.84-3.97,3.55-6.31c0.71-2.34,1.07-4.67,1.07-6.98
			c0-2.61-0.64-5.18-1.91-7.73C412.82,291.34,411.32,289.3,409.6,287.76z M382.68,274.34h12.53c1.01,0,1.85,0.39,2.53,1.16
			c0.68,0.77,1.02,1.66,1.02,2.67c0,1.01-0.34,1.9-1.02,2.67c-0.68,0.77-1.53,1.15-2.53,1.15h-12.53V274.34z M398.98,303.44
			c-0.21,0.62-0.5,1.2-0.89,1.73c-0.39,0.53-0.83,0.96-1.33,1.29c-0.5,0.33-1.02,0.49-1.56,0.49h-12.53V296.2h12.53
			c0.53,0,1.05,0.18,1.56,0.53c0.5,0.36,0.95,0.8,1.33,1.33c0.38,0.53,0.68,1.11,0.89,1.73c0.21,0.62,0.31,1.23,0.31,1.82
			C399.29,302.21,399.19,302.82,398.98,303.44z"/>
		<path class="st0" d="M465.63,281.76c-2.37-1.92-5.05-3.36-8.04-4.31c-2.99-0.95-6.09-1.42-9.29-1.42c-3.14,0-6.22,0.48-9.24,1.42
			c-3.02,0.95-5.7,2.39-8.04,4.31c-2.34,1.93-4.22,4.33-5.64,7.2c-1.42,2.87-2.13,6.24-2.13,10.09c0,3.85,0.71,7.2,2.13,10.04
			c1.42,2.84,3.3,5.21,5.64,7.11c2.34,1.9,5.02,3.32,8.04,4.27c3.02,0.95,6.1,1.42,9.24,1.42c3.2,0,6.29-0.47,9.29-1.42
			c2.99-0.95,5.67-2.37,8.04-4.27c2.37-1.9,4.27-4.27,5.69-7.11c1.42-2.84,2.13-6.19,2.13-10.04c0-3.85-0.71-7.21-2.13-10.09
			C469.9,286.08,468,283.68,465.63,281.76z M458.92,303.8c-0.5,1.51-1.35,2.86-2.53,4.04c-1.19,1.19-2.52,2.04-4,2.58
			c-1.48,0.53-2.84,0.8-4.09,0.8c-1.19,0-2.52-0.28-4-0.84c-1.48-0.56-2.81-1.44-4-2.62c-1.19-1.18-2.03-2.52-2.53-4
			c-0.5-1.48-0.76-3.05-0.76-4.71c0-1.72,0.25-3.35,0.76-4.89c0.5-1.54,1.35-2.9,2.53-4.09c1.18-1.18,2.52-2.04,4-2.58
			c1.48-0.53,2.81-0.8,4-0.8c1.24,0,2.61,0.27,4.09,0.8c1.48,0.53,2.81,1.39,4,2.58c1.18,1.19,2.03,2.55,2.53,4.09
			c0.5,1.54,0.76,3.17,0.76,4.89C459.68,300.7,459.43,302.29,458.92,303.8z"/>
		<path class="st0" d="M528.55,289.58c-1.07-2.81-2.58-5.21-4.53-7.2c-1.96-1.98-4.33-3.54-7.11-4.67
			c-2.79-1.12-5.87-1.69-9.24-1.69c-2.79,0-5.27,0.42-7.46,1.24c-2.19,0.83-4.15,1.99-5.87,3.47v-21.86h-13.77v62.3h13.77v-4.71
			c1.72,1.66,3.69,2.98,5.91,3.95c2.22,0.98,4.7,1.47,7.42,1.47c3.38,0,6.46-0.56,9.24-1.69c2.78-1.12,5.15-2.7,7.11-4.71
			c1.96-2.01,3.47-4.43,4.53-7.24c1.07-2.81,1.6-5.94,1.6-9.38C530.15,295.49,529.62,292.39,528.55,289.58z M515.62,303.75
			c-0.5,1.54-1.35,2.9-2.53,4.09c-1.19,1.19-2.4,2.09-3.64,2.71c-1.24,0.62-2.73,0.93-4.44,0.93c-1.66,0-3.26-0.31-4.8-0.93
			c-1.54-0.62-2.9-1.52-4.09-2.71c-0.77-0.77-1.36-1.57-1.78-2.4v-12.89c0.41-0.83,1.01-1.63,1.78-2.4
			c2.49-2.49,5.45-3.73,8.89-3.73c1.72,0,3.2,0.31,4.44,0.93c1.24,0.62,2.46,1.53,3.64,2.71c1.18,1.19,2.03,2.53,2.53,4.04
			c0.5,1.51,0.76,3.1,0.76,4.75C516.38,300.58,516.12,302.21,515.62,303.75z"/>
	</g>
</g>
<g>
	<g>
		<path class="st4" d="M347.87,344.58H103.19c-1.31,0-2.37-1.06-2.37-2.37l0,0c0-1.31,1.06-2.37,2.37-2.37h244.68V344.58z"/>
	</g>
	<g>
		<path class="st4" d="M367.43,344.58h169.44c1.31,0,2.37-1.06,2.37-2.37l0,0c0-1.31-1.06-2.37-2.37-2.37H367.43V344.58z"/>
	</g>
</g>
</svg>
